<svg id="Layer_1" data-name="Layer 1" xmlns="http://www.w3.org/2000/svg" viewBox="0 0 2982.08 1896.53"><defs><style>.cls-1{fill:#2a2a2a;stroke:#000;stroke-miterlimit:10;}.cls-2{fill:#909090;}.cls-3{fill:#8c8c8c;}.cls-4{fill:#8f8f8f;}.cls-5{fill:#919191;}.cls-6{fill:#929292;}.cls-7{fill:#959595;}.cls-8{fill:#989898;}.cls-9{fill:#939393;}.cls-10{fill:#8d8d8d;}.cls-11{fill:#8e8e8e;}.cls-12{fill:#8b8b8b;}.cls-13{fill:#9e9e9e;}.cls-14{fill:#adadad;}.cls-15{fill:#a0a0a0;}.cls-16{fill:#bbb;}.cls-17{fill:#c9c9c9;}.cls-18{fill:#a8a8a8;}</style></defs><path class="cls-1" d="M-9.5,54.5h0Z" transform="translate(497.65 382.79)"/><path class="cls-2" d="M1204.41,1501q-74.07,3.3-148.14,6.56c-20.93.89-41.87,1.34-62.79,2.31-2,.09-3.87,2.5-5.8,3.83H965c-1.91-.84-3.82-2.41-5.74-2.41q-59.31-.24-118.64,0c-1.9,0-3.79,1.59-5.68,2.44h-35.1c-2.61-1.33-5.19-3.76-7.83-3.83-26.12-.7-52.26-.76-78.38-1.46-53.23-1.42-106.48-2.64-159.69-4.84-61.08-2.52-122.19-5-183.16-9.31-77.12-5.44-154.11-12.62-231.15-19.23-56.48-4.84-113-9.29-169.39-15.1-69.69-7.19-139.17-16.67-208.92-23.18-55.4-5.16-111.06-7.66-166.64-10.72-27.1-1.49-54.28-1.43-81.42-2.47-2.93-.11-5.76-2.83-8.64-4.33l1.53-3.43q19.94,1.07,39.88,2.13c71,3.83,142.11,6.55,213,11.86,51.33,3.85,102.37,11.36,153.59,16.83,57.05,6.09,114.12,12.06,171.24,17.47q92.33,8.76,184.78,16.34c39.71,3.31,79.44,6.43,119.23,8.61,81,4.43,161.95,9.65,243,11.84,104.8,2.83,209.67,3.81,314.52,4,62.18.12,124.37-2.68,186.55-4.4,24-.66,48-2,72-3C1204.13,1498.74,1204.27,1499.89,1204.41,1501Z" transform="translate(497.65 382.79)"/><path class="cls-3" d="M2484.43,1216.57c-45.19-3.22-90.42-5.9-135.55-9.8-60.53-5.23-121-11.49-181.47-17.12-16.06-1.49-32.18-3.15-48.27-3.24-21-.11-37.51,10.3-50.9,25,6.08,20.53,22.16,27.19,40.2,32.5,92.66,27.26,187.66,40,283.66,47.07,28.07,2,56.14,4.33,84.21,6.42a69.16,69.16,0,0,0,8.12-.32v8.26c-21.52-2-43.07-3.79-64.54-6.2-64.12-7.18-128.28-14.07-192.28-22.2-28.85-3.67-58-7.79-85.83-15.81-24.67-7.11-47.78-19.72-71.35-30.41-3.68-1.67-7-5.62-8.93-9.33-4-7.67-4.25-15.3,4.61-20.34,13.54-7.71,27.14-15.3,43.69-24.62-7.51-1.42-12.23-3.07-17-3.11-60.81-.44-121.62-.52-182.43-1-40.55-.3-81.1-1-121.65-1.57,0-1.2,0-2.41,0-3.62,20.22-.42,40.45-1.15,60.67-1.18,55.33-.09,110.71-1.22,166,.54,71,2.25,142,6.93,212.93,10.52,44.24,2.24,88.49,4.32,132.73,6.63,38.74,2,77.46,4.26,116.2,6.35,2.38.13,4.78-.16,7.18-.25v6.19c-2.74,0-5.5.27-8.23.07-28.73-2.1-57.45-4.36-86.2-6.39-28.39-2-56.78-4.2-85.21-5.47-18.63-.83-37.33-.16-56-.16l-.36,2.94c34.14,5,68.15,11.52,102.46,14.79,44.39,4.23,89,5.9,133.54,8.67Z" transform="translate(497.65 382.79)"/><path class="cls-4" d="M2484.43-17.51l-152.56,1.35c-57.68.51-115.35,1.37-173,1.42-45.7,0-91.41-.6-137.1-1.51-53.21-1.06-106.45-2.09-159.62-4.29-78.31-3.25-156-13.24-233-27.24-41.39-7.53-82.19-18.25-123.26-27.53l0-4.22c38.31,7.9,76.43,16.94,115,23.47,72.76,12.32,145.7,24.05,219.6,27,68,2.72,136,4.48,204,6.58,33,1,66,2.9,98.92,2.44,37.42-.53,74.81-3.7,112.23-4.8,20.58-.61,41.22,1.14,61.83,1,55.66-.41,111.32-1.26,167-1.93Z" transform="translate(497.65 382.79)"/><path class="cls-5" d="M1998.52-335.19c3-.87,6.1-2.54,9.12-2.49,51.52.89,103,2,154.55,3,40.52.78,81,1.4,121.56,2.17,13,.24,26.06,1.17,39.09,1q74.72-.76,149.42-2.1c4.06-.07,8.11-1.14,12.17-1.75v8.25c-9.89-.34-19.77-1-29.66-1-93.46.56-186.93,2.38-280.37,1.46-54.18-.54-108.32-5.45-162.49-8.35C2007.46-335.17,2003-335.11,1998.52-335.19Z" transform="translate(497.65 382.79)"/><path class="cls-2" d="M2401.91,865.51l-31.22,1.67-14.23.51-82.78,1.6c-1.6-.47-3.2-1.34-4.81-1.34q-44.8-.12-89.63,0c-2.19,0-4.38,1.28-6.57,2l-12.37-.09-25.8-1.26-27.88-.84-7.24-1.14-34.06-3-4-.38-29-3.87-.16-3.38c71.56,6.77,143.32,7.07,215.09,6.27,42.58-.48,85.18-.83,127.69-2.9,32.82-1.59,65.52-5.76,98.27-8.81,3.75-.35,7.49-.85,11.24-1.29v6.19l-54.78,6.93-5,1.11-15.66.88C2406.6,864.72,2404.25,865.12,2401.91,865.51Z" transform="translate(497.65 382.79)"/><path class="cls-2" d="M1635.93-382.79c12,2.06,23.85,4.58,35.87,6.09q122.49,15.43,245,30.39c24.78,3,49.74,4.39,74.58,6.84,2.15.21,4.06,2.77,6.08,4.24-47.91-4.19-95.93-7.44-143.71-12.81-68.23-7.67-136.27-16.89-204.39-25.47-13.62-1.71-27.26-3.38-40.83-5.44-2.71-.41-5.17-2.51-7.74-3.84Z" transform="translate(497.65 382.79)"/><path class="cls-2" d="M2203.7,166l-15.55,1c-2.4.41-4.8.84-7.19,1.26l-18.74,1.54-6,.55-15.44,1-5.17.92-3.19.22c2.17-1.81,4.19-5,6.53-5.24,60.36-6.71,120.78-12.86,181.13-19.65,52.52-5.91,105-12.46,157.42-18.79a54,54,0,0,0,7-1.79v8.26c-58.17,6.79-116.31,13.79-174.51,20.3-34,3.81-68.16,6.82-102.25,10.19Z" transform="translate(497.65 382.79)"/><path class="cls-6" d="M2397.81,667.33l-62.09-8.13-5.17-1.33c-26-4.38-52.05-8.43-78-13.19-40.42-7.42-80.76-15.31-121.12-23a17.05,17.05,0,0,1-3.24-1.34l.75-3.8c15.86,2.35,31.77,4.42,47.58,7.08,76.05,12.76,152.05,25.77,228.12,38.46,18.25,3,36.66,5.14,55,7.68l4,.34,20.76,3.76v2.06l-82.57-8.22Z" transform="translate(497.65 382.79)"/><path class="cls-6" d="M2484.43,1416.75q-107.57-.42-215.13-.87c-35.66-.17-71.32-.55-107-.83,0-.83,0-1.65,0-2.47,80.61-1.06,161.23-2.3,241.85-3.08,26.73-.26,53.47.67,80.21,1.06Z" transform="translate(497.65 382.79)"/><path class="cls-7" d="M2168.53,1016.61c79.35-9.46,158.67-19.11,238-28.28,25.87-3,51.89-4.72,77.85-7v6.19c-17.68,1.48-35.4,2.58-53,4.52-47.36,5.2-94.67,10.87-142,16.13-36.81,4.09-73.65,7.88-110.5,11.69-4.75.49-9.57.3-14.36.43Z" transform="translate(497.65 382.79)"/><path class="cls-6" d="M2282.09,1303.64c37.34,2.35,74.68,4.79,112,7,30.1,1.79,60.21,3.32,90.31,5v8.25L2282.09,1307Z" transform="translate(497.65 382.79)"/><path class="cls-2" d="M2323.25,591.84l45.63,1.72,16.29.36,58,1.54,17.46,1.31,23.82.69v6.19c-12.61-.77-25.22-1.62-37.84-2.3q-79.08-4.26-158.17-8.42c0-1,0-2,.07-3l26.7,1.54Z" transform="translate(497.65 382.79)"/><path class="cls-8" d="M2484.43,93.92l-72.14,4.49,0-4.1,72.17-6.58Z" transform="translate(497.65 382.79)"/><path class="cls-9" d="M523.26-374.26l39.14-8.53h22.71c-2.36,1.25-4.6,3.23-7.1,3.64-18.25,3-36.55,5.76-54.84,8.58Z" transform="translate(497.65 382.79)"/><path class="cls-10" d="M744.23,1352.29c-71,1.48-141.11-5.64-211.23-17.21-55.71-9.18-109-24-159.62-48.35-21.17-10.16-40.93-22.83-55.05-42.49-13.94-19.41-10.44-29.37,7.8-43.47,20.49-15.85,45.52-17.59,70.62-14.65C467,1194.34,537.26,1203,607.57,1211c43,4.9,86,10.06,129.17,12.9,34.27,2.25,68.79.43,103.14,1.74,50.78,1.93,101.61,3.86,152.22,8.16,22.32,1.9,44.51,8.49,66,15.24,8.88,2.78,17.9,10.21,23.16,18,6,8.89,1.1,18.88-9.09,27.48-23.5,19.83-51.81,29.29-81.08,34.76-34,6.37-68.48,11.07-103,14.49-47.82,4.74-95.83,7.62-143.76,11.3C744.36,1354.18,744.3,1353.23,744.23,1352.29Zm35.39-6.13c33-2.48,86.46-5.9,139.81-10.69,37.29-3.35,74.33-9.34,109.27-23.58,11-4.51,23.26-10.07,30.65-18.79,12.48-14.72,16.89-25.42-4.63-37.33-7.61-4.21-16.48-6.71-25.09-8.46-61.91-12.58-124.93-13.88-187.68-15.7-64.86-1.89-129.77,0-194.4-8.76-44.53-6-89.47-9-134.12-14.34C476,1204,438.72,1197.63,401.26,1193A115.77,115.77,0,0,0,336,1203.42c-16.06,7.7-19,22.27-9.57,36,13,18.81,31.12,31.31,50.71,41.51,40.48,21.1,84.62,31.66,128.82,41.13C589.34,1339.92,674.12,1343.84,779.62,1346.16Z" transform="translate(497.65 382.79)"/><path class="cls-10" d="M2282.09,1303.64V1307q-66.23-5.46-132.44-11c-36.26-3.06-72.47-6.76-108.76-9.35-65.77-4.68-131.54-10.7-197.42-12.5-58.62-1.6-117.43.73-176.08,3.23q-70.46,3-140.69,10.76-87,9.45-173.52,22.6c-98.76,14.89-197.31,31.21-296,46.58-21,3.27-42.26,5-63.4,7.5l-4,.38-42.62,5.49c-.2-.85-.4-1.69-.59-2.54,1.91-.8,3.75-2,5.74-2.34,103.73-16.51,207.39-33.41,311.22-49.21,71.94-10.95,144-21.5,216.24-30.16,95.51-11.44,191.11-23.21,287.66-20.33,70.41,2.1,141,2.27,211.17,7.34,90.1,6.49,179.91,17,269.84,25.87C2259.65,1300.43,2270.86,1302.18,2282.09,1303.64Z" transform="translate(497.65 382.79)"/><path class="cls-11" d="M376.56,375.62l-7.51,4.19-2.2-2.44c2.76-2.69,5.17-5.94,8.34-8,31.66-20.57,63.31-41.15,95.22-61.32,71-44.9,149.15-73.13,229.71-94.59,32.71-8.72,67-11.24,100.13-18.72,67.61-15.27,136.46-14.61,205-17.83,27.81-1.3,55.67-1.29,83.5-2.29,60.51-2.17,119,10,176.62,26.21,36.52,10.27,73,21.92,107.68,37.11,36.45,16,71.41,35.72,105.76,55.94,38.06,22.4,75,46.79,111.8,71.19,12.71,8.42,26.58,16.67,32.81,35.76-10.22-6.75-18.62-11.93-26.62-17.65-35.12-25.1-69.08-52-105.42-75.15-50.74-32.35-105-58.41-161-80.55-50.32-19.87-101.79-36.27-155.9-39.89-54.46-3.64-109.22-6-163.74-4.66-59.32,1.47-118.85,5.31-177.7,12.74-96.28,12.17-190.3,35.14-278.32,77.23C517.32,290.78,482,313.08,446,333.81c-21.82,12.56-43.16,25.95-64.71,39Z" transform="translate(497.65 382.79)"/><path class="cls-2" d="M508.7,717.34c35.93-2.87,71.4,1.86,106.9,6.3,34.07,4.26,68.72,5.74,102.17,12.89,70.74,15.13,140.86,33.17,211.23,50,86.29,20.64,168.08,54.13,249.6,88.16,48.9,20.41,96.14,45,145.64,63.69,57.64,21.76,116.19,42,175.75,57.47,48,12.46,98,17.09,147.2,24.74,85.37,13.3,171.41,11,257.34,10.13,45.35-.47,90.68-2.55,136-3.9l0,3.9-29.08,1.69-10.11.34-41.48,1.79-16.41.56-212.64-.28-8-.38-27-1.55-8.06-.62c-87.47-5.34-173.07-21-255.77-50-64.52-22.61-128.52-46.83-192.09-72-72.81-28.85-144.33-61-217.51-88.87-39.54-15.05-81.07-25.21-122.21-35.56-58.16-14.62-116.58-28.4-175.28-40.64a1062.91,1062.91,0,0,0-176.65-22c-22-.84-43.94-.54-65.91-.76l-.42-3,20.69-1.8Z" transform="translate(497.65 382.79)"/><path class="cls-2" d="M2412.26,94.31l0,4.1c-25.58,2.54-51.19,4.87-76.74,7.67-63.49,7-126.94,14.3-190.44,21.21-51.19,5.57-102.32,12.19-153.65,15.74-70.9,4.9-142,7.65-213,10.69-22.93,1-45.94,0-68.9-.1-41.91-.13-83.83.58-125.71-.56q-124.12-3.37-248.2-8.5c-50.41-2.06-100.76-5.8-151.16-8.32-29.1-1.46-58.24-2-87.36-3l-28.81-.57-80.63-1.53-32.86-.67-74.58.19c0-1.23,0-2.47.05-3.71,52.56-.11,105.13-.89,157.67-.17,53.6.74,107.21,2.39,160.77,4.63,68.64,2.89,137.23,7.2,205.87,10.08,53.22,2.23,106.49,3.91,159.76,4.56,81.47,1,163,2.6,244.42.66,65.17-1.55,130.31-7,195.31-12.52,64.32-5.43,128.43-13.16,192.66-19.64,60.83-6.14,121.69-12,182.55-17.92,2-.2,4.11-.12,6.17-.18l3.88-.27Z" transform="translate(497.65 382.79)"/><path class="cls-4" d="M-494-25.79c18.38,1.12,36.77,3.16,55.16,3.19,49.8.1,99.63.21,149.39-1.31,47.38-1.44,94.69-5.25,142.06-7.41C-110-33-72.53-34.84-35.1-34.7c39.65.15,78.81,5.52,115.68,21.36A153.72,153.72,0,0,1,107.91,2.37c16.38,11.51,14.77,32.5-1,43.74C78.21,66.59,46.81,81.25,13.3,91.51c-90.3,27.65-181.64,51.35-275.33,64-74.87,10.09-150.12,17.35-225.22,25.66-2.29.25-4.83-1.78-7.26-2.75,2.43-1.19,4.78-3.2,7.3-3.45,45.11-4.44,90.29-8.35,135.38-13a1684.53,1684.53,0,0,0,215.07-36.61c50.41-12,101.21-22.15,149.48-41.45,25-10,49.72-21,74.29-32.1,6-2.74,11.55-7.31,16.31-12,11.37-11.33,10.1-22.51-3.58-32.23C76.06-9.35,49.37-18.69,20.65-21.7c-63.09-6.63-126.21-4.89-189.44-1-49.38,3-98.89,3.9-148.36,5.37-40.2,1.19-80.41,2.29-120.62,2.51C-453.86-14.76-470-17-486-18.51c-3.12-.31-6.07-2.41-9.1-3.68Z" transform="translate(497.65 382.79)"/><path class="cls-11" d="M698.56,145.27c-53,7.89-106.25,14.19-158.84,24.12-57.33,10.82-114.29,23.9-170.92,38-88.51,22-176.55,45.87-264.87,68.59-49.82,12.82-99.54,26.17-149.8,37-55.7,12-111.81,22.42-168,31.66-33.5,5.51-67.52,8.26-101.41,10.82-56.86,4.29-113.81,7.46-170.72,11a70.55,70.55,0,0,1-7.94-.37l-.66-2.56c3.34-1,6.64-2.59,10-2.83,42.85-3.08,85.82-4.95,128.56-9.13,62.21-6.08,124.54-11.94,186.31-21.25,98.9-14.9,195-42.62,291.68-67.72q84.67-22,169.56-43.18c55.92-13.92,111.61-29.14,168.08-40.41,64.92-13,130.55-22.37,195.94-32.93,14.2-2.29,28.67-2.93,43-4.34Z" transform="translate(497.65 382.79)"/><path class="cls-11" d="M498.44,1169c30.92,4.39,61.77,9.42,92.78,13,63.75,7.45,127.44,17,191.44,20.5,100.49,5.59,201.21,8.53,301.86,9.46,54.17.51,108.41-5.33,162.6-8.6,35-2.11,69.92-4.67,104.88-7.17q92.49-6.6,185-13.37c23.29-1.68,46.59-3.26,69.88-4.88l.06,3.19c-81.42,7.37-162.8,15.24-244.27,21.93-57.16,4.7-114.41,9.77-171.7,11.17-105.82,2.6-211.72,4.24-317.54,3-53.44-.61-106.83-8-160.19-12.9-34.87-3.22-69.76-6.75-104.43-11.64-36.68-5.17-73.11-12.12-109.63-18.35a9.81,9.81,0,0,1-2.72-1.41Q497.43,1171,498.44,1169Z" transform="translate(497.65 382.79)"/><path class="cls-11" d="M2017.76,182.34c-59,2.16-118.06,3.75-177,6.66-54.46,2.68-109.43,1.58-162.71,15.5a294.65,294.65,0,0,0-55.46,20.83c-19.1,9.42-34.2,35.38-21.76,60.44,14.93,30.07,32.06,58.06,59.51,78.22,15.58,11.44,31.87,21.91,48,32.59,22.12,14.64,43.94,29.81,66.69,43.41,51.92,31,107.62,53.66,165.22,71.75Q2020.55,537,2101,561.82c6.53,2,13.3,3.3,19.95,4.92.1,1.14.19,2.28.29,3.41-45.93-11.2-93-19.15-137.52-34.41-60.1-20.59-119.83-43.61-176.76-71.6-45.82-22.53-92.39-45.84-131.83-79.45A767.67,767.67,0,0,1,1611,322.84c-7.86-8.46-11.38-21.14-16.17-32.21a72.52,72.52,0,0,1-5.56-19.51c-2.13-17.3,3.37-31.78,17.15-43.19,17.12-14.18,37.7-20.54,58.41-26.33,51.39-14.39,104.18-16.71,157.14-17.31,16.47-.18,32.94-.81,49.41-1.23l6.08-.36,79.61-.71,23.58-1.22,37.07-1.66C2017.73,180.19,2017.74,181.27,2017.76,182.34Z" transform="translate(497.65 382.79)"/><path class="cls-4" d="M498.44,1169q-1,2-2,4-34-5.87-67.95-11.72c-67-11.61-133.67-25.42-201-34.26-73.5-9.64-147.24-18-221.71-18.91-57.16-.71-112.55,8.36-168.59,17.52-61.21,10-117.86,33.61-176.77,50.27-49.84,14.09-99.32,29.43-149,44.17a25.63,25.63,0,0,1-4.91.49l-1.9-2.66c2.6-2.1,4.9-5.28,7.86-6.11,22.12-6.24,44.56-11.41,66.54-18.09,29.8-9,59.16-19.56,88.93-28.71,37-11.37,74.38-21.6,111.37-33,45.45-14.06,91.76-24.17,139.14-27.44,36.63-2.53,73.61-4.13,110.21-2.09q94.1,5.26,187.86,16c45,5.21,89.48,14.62,134.13,22.51,29.38,5.19,58.65,11,88,16.56C458.57,1161.27,478.5,1165.15,498.44,1169Z" transform="translate(497.65 382.79)"/><path class="cls-10" d="M-422.29,981.59c39.17-14.39,78.79-27.7,117.41-43.43,64.85-26.4,129.29-53.86,193.49-81.82,41.94-18.26,83-38.41,124.71-57.3,56-25.39,111.82-51.34,168.47-75.27,55.41-23.39,111.73-44.62,167.73-66.6,6.33-2.48,13.19-3.63,19.8-5.39l1.79,2.25c-16.75,6.84-33.35,14-50.25,20.45-91.09,34.62-180.22,73.77-268.46,115-64.06,29.92-127.94,60.27-192.47,89.13-41.78,18.68-84.63,35-127,52.42-47.79,19.71-95.57,39.45-146.06,51.52-3,.71-6,1.55-8.93,2.32Z" transform="translate(497.65 382.79)"/><path class="cls-10" d="M893,639.38c-4.22,7.16-10.48,13.84-12.25,21.56-4.15,18.06,2.95,30.64,21.63,39.16,31.7,14.47,63.74,28.23,95.81,41.9,79.89,34.07,159.91,67.84,239.81,101.88,71.87,30.62,144.26,59.62,220.47,78.06,45,10.87,89.66,22.82,134.46,34.4,4.14,1.07,8.08,2.92,12.12,4.41l-.15,2.73c-2.95.47-6.14,1.94-8.79,1.27-57.14-14.48-114.68-27.64-171.17-44.35-44.91-13.29-89-29.76-132.59-47-45.11-17.88-88.87-39.12-133.74-57.62-55.3-22.8-111.12-44.35-166.76-66.33-32.72-12.92-66.55-23.37-96.09-43.3-14.52-9.8-24.33-22.15-24-41,.25-15.25,7.48-24.82,21-30.49C892.8,636.21,892.88,637.79,893,639.38Z" transform="translate(497.65 382.79)"/><path class="cls-4" d="M905,1375.16c-73.64,8.12-147.37,8.3-221.34,5-90.78-4-179.3-21.08-266.94-43.19-67.78-17.1-135-36.27-202.39-55-75.66-21-150.9-43.67-228.48-57-1-.17-1.9-.61-2.72-2.93,8.69.53,17.4.85,26.06,1.61,43.75,3.87,85,18.19,126.91,30,38.27,10.76,76.78,20.65,115.12,31.18,47.94,13.16,95.69,27,143.73,39.81,90.38,24.06,181.86,42.26,275.31,49.41,67.34,5.14,134.65,2.06,202,0l8-.51,24.84-1.73Z" transform="translate(497.65 382.79)"/><path class="cls-5" d="M1070.27,593.45c84.56,11.12,167.38,30,249.62,52.56,85.13,23.33,167.5,53.86,249.38,86.43,51.84,20.62,105.07,37.74,157.72,56.28,74.32,26.16,150.56,44.74,228.32,57.2,12.54,2,25.13,3.76,37.7,5.62l.06,2.58c-50.62-2.83-99.62-14.93-149.1-24.91-84.89-17.12-164.6-50-245.83-78.07-52-18-102-41.73-153.92-60.11a1890.13,1890.13,0,0,0-228.38-65.12c-48.27-10.52-97-19.16-145.46-28.65C1070.34,596,1070.31,594.72,1070.27,593.45Z" transform="translate(497.65 382.79)"/><path class="cls-4" d="M-362-311.65c13.44,7,32.48,9.65,52.16,9.77,62.24.38,124.52,2.77,186.69,1C-58.27-302.78,6.59-307.56,71.29-313c54.37-4.59,108.58-11.43,162.73-18.34,49-6.26,97.9-14,146.84-21,7.09-1,14.23-1.62,21.34-2.42.22.86.43,1.72.64,2.58a68.58,68.58,0,0,1-7.63,2c-79.87,11.61-159.67,23.78-239.67,34.55a2164.25,2164.25,0,0,1-271.25,19.7c-50.53.4-101.09,1.82-151.59.7-72.84-1.63-145.63-5.15-218.44-7.88-1.37-.05-2.95.12-4.06-.49a34.18,34.18,0,0,1-4.82-3.83c1.91-1.27,3.89-3.74,5.73-3.65,33.3,1.64,66.56,4,99.87,5.16C-381.3-305.65-373.44-309.1-362-311.65Z" transform="translate(497.65 382.79)"/><path class="cls-10" d="M178.62,517.33C120.57,555.33,63.35,594.68,4.27,631c-80.55,49.52-163.73,94.45-250.69,132-73.86,31.9-150.13,56-229.46,70.1-5.4,1-10.85,1.66-16.29,2.39-.57.07-1.22-.48-5.48-2.27,5.52-2.65,8.57-4.84,11.95-5.63,28.71-6.69,57.64-12.46,86.18-19.77A1055.05,1055.05,0,0,0-210.41,739.6c31.16-14.73,62.27-29.72,92.45-46.31C-80.66,672.8-44.31,650.58-7.62,629c22.91-13.49,46.07-26.6,68.42-41,36.38-23.35,72.18-47.6,108.26-71.42a24.88,24.88,0,0,1,4.76-1.9Z" transform="translate(497.65 382.79)"/><path class="cls-10" d="M131.63,475.84c-7.91,6.54-15.36,13.73-23.79,19.51-43.72,30-89.81,56.29-138.57,76.7-67.15,28.12-135,54.82-203.76,78.78-81.8,28.52-164.83,53.49-247.35,79.95-3.79,1.21-7.73,2-11.6,3l-1.69-3.15c2.77-1.59,5.37-3.72,8.35-4.68,36.9-11.82,74.17-22.56,110.71-35.36,93.71-32.83,187.66-65.09,280.4-100.51,51.24-19.58,100.82-43.87,150-68.41,23.24-11.6,43.67-28.81,65.45-43.35,3.14-2.09,6.75-3.47,10.14-5.18Z" transform="translate(497.65 382.79)"/><path class="cls-5" d="M744.07-293.7c46.69,9.2,93.79,16.76,140,28,61.23,14.92,122.26,31.06,182.42,49.74,73.26,22.75,145.4,49.08,218.29,73.06,32.14,10.58,65,19,97.43,28.74,22,6.61,43.81,13.84,65.71,20.79l-2.35,1.8c-25.42-6.93-51-13.26-76.2-20.9q-90.49-27.45-180.65-55.95c-59.68-18.9-119-39.07-178.76-57.61-85.27-26.44-172.08-46.75-259.89-62.8-2-.37-4-1-6-1.48Z" transform="translate(497.65 382.79)"/><path class="cls-11" d="M485.89,617.88c57-16.79,114.84-29.53,173.91-36.8a1165.94,1165.94,0,0,1,192.38-7.36c40.46,1.73,80.84,5.32,121.26,8.18a21.83,21.83,0,0,1,9.72,3.12c-15.85,0-31.71.31-47.55,0-53.23-1.2-106.53-5.11-159.65-3.28-51.68,1.78-103.36,7.81-154.66,14.8-44.4,6.06-88.25,16.07-132.35,24.33Z" transform="translate(497.65 382.79)"/><path class="cls-4" d="M744.07-293.7v3.4c-57.45-4.6-114.82-10.95-172.35-13.36-72.07-3-144.17-.28-216.06,6.66-61.18,5.91-122.41,11.29-183.61,16.9l-6.05.54-20.7,1.78-4.06.26-43.37,3.9v-3.78c38.91-4,77.79-8.35,116.74-11.92q109.74-10.05,219.56-19.34c74.49-6.31,148.9-5.82,223.15,3.67C686.24-301.29,715.15-297.47,744.07-293.7Z" transform="translate(497.65 382.79)"/><path class="cls-2" d="M2123.75,621c-165.14-46.47-328.61-95.38-467.53-201.73,4.15,1.33,8.79,1.88,12.36,4.13,26.45,16.69,51.91,35.11,79.18,50.28,29.8,16.56,61.08,30.52,92,45.09,65.19,30.76,133.31,53.36,202.6,72.82,23.39,6.57,46.31,14.85,69.34,22.68C2116,615.75,2119.73,618.74,2123.75,621Z" transform="translate(497.65 382.79)"/><path class="cls-9" d="M27.68-267.39c-26.67,2.67-53.32,5.46-80,8-62.95,5.94-125.81,13.74-188.89,17.05-58.61,3.07-117.47,1.75-176.22,1.44-20.56-.11-41.1-2.94-61.65-4.63-5-.41-9.89-1.25-14.83-1.89l.18-2.52c10.91,0,21.82-.17,32.72,0,60.83,1.14,121.72,4.58,182.47,2.92,57.27-1.55,114.4-8.39,171.58-13q58.08-4.68,116.14-9.56l18.47-1.51C27.67-269.84,27.67-268.62,27.68-267.39Z" transform="translate(497.65 382.79)"/><path class="cls-4" d="M1634.55,797.28c37.12,15.69,74,32.05,106.93,55.58,24.54,17.54,48.18,36.35,71.92,55,17.61,13.8,16.43,35.78-1.69,49-11.74,8.58-25.25,10.33-38.92,11.12-32.91,1.92-65.84,4.08-98.78,4.58-17.42.26-34.9-2.61-52.32-4.42-3.45-.36-6.73-2.36-9.63-5.61,23.17,1.3,46.34,2.7,69.52,3.89,34.77,1.77,69.45,1.26,103.51-7,7.9-1.92,16-4.46,23-8.47,13.24-7.59,14-24.17,2.41-34.18-30.63-26.42-61.14-53.14-96.53-73.09-27.57-15.53-56.11-29.35-84.22-43.93Z" transform="translate(497.65 382.79)"/><path class="cls-6" d="M1388.23,1484.73l-16.62,1.77,0-4c36.53-4,73.06-7.84,109.58-11.91,56.3-6.28,112.57-12.78,168.87-19,56-6.2,111.91-12.37,167.91-18.17,23.89-2.47,47.88-4,71.83-5.93,0,1.18,0,2.36,0,3.54-81.2,9.07-162.38,18.42-243.63,27.14-84.65,9.08-169.36,17.54-254,26.28Z" transform="translate(497.65 382.79)"/><path class="cls-12" d="M-98.51,1217.15c-85.92-3-170.78,7.52-255.44,20.35q-65.16,9.87-130.33,19.75a85.78,85.78,0,0,1-9.09.44l-1.87-2.78c2.62-2,5-5.17,7.91-5.67,31.79-5.57,63.51-11.81,95.52-15.75,60.68-7.46,121.4-15.12,182.34-19.62,36.84-2.72,74.11.35,111.18.82C-98.36,1215.51-98.43,1216.33-98.51,1217.15Z" transform="translate(497.65 382.79)"/><path class="cls-10" d="M-149.8,969.05c35-17.74,70.45-34.6,104.83-53.44,47.19-25.85,93.21-53.83,140.4-79.68,32-17.52,65.06-33,97.7-49.27,1.78-.88,3.91-1,5.89-1.55l.17,4.6c-32.31,16.88-64.91,33.22-96.85,50.77C55.5,866.22,9.62,893.73-37.59,918.76-74.29,938.2-112.39,955-149.86,973Z" transform="translate(497.65 382.79)"/><path class="cls-4" d="M893,639.38c-.09-1.59-.17-3.17-.25-4.76a108.71,108.71,0,0,1,65.5-20.07c43.44.66,87,2.47,130.19,7.12,36,3.88,71.52,12,107,19.28,12.27,2.5,23.92,8,35.85,12.16-.09,1-.18,2-.26,3-33-7.56-66-15.64-99.12-22.45a290.46,290.46,0,0,0-46-5.24c-43.9-1.91-87.84-2.87-131.76-4.51C932.18,623.1,911.07,625.11,893,639.38Z" transform="translate(497.65 382.79)"/><path class="cls-4" d="M67,385c-24.14,3.19-48.41,5.64-72.4,9.72-56.21,9.56-112.17,20.57-168.44,29.69-39.28,6.36-78.91,10.58-118.39,15.75v-3.3c58.58-10.68,117-22.41,175.81-31.73,54.8-8.69,110-14.84,165-22,6.11-.8,12.26-1.22,18.4-1.81Z" transform="translate(497.65 382.79)"/><path class="cls-4" d="M1297.77,672.08C1334.86,684,1372.12,695.44,1409,708c40.43,13.77,80.79,27.89,120.67,43.18,28.31,10.85,55.78,23.91,83.63,36,0,1.47-.07,2.94-.1,4.42-32.13-12.57-64.06-25.66-96.42-37.57-46.88-17.25-94.07-33.66-141.14-50.4q-39.12-13.92-78.28-27.75C1297.5,674.6,1297.63,673.34,1297.77,672.08Z" transform="translate(497.65 382.79)"/><path class="cls-2" d="M2155-237.36c19.32-1,33.49,7.77,38.78,22.35,4.29,11.8-1,23.63-15.09,29.48-26.49,11-53.84,15.91-82.14,6.84-16.44-5.27-29.88-14.26-38.1-30.12-4.87-9.39-3.8-15.8,5-22.69,12.33-9.62,26.44-12.3,42.29-8.63-4.49,1.15-9,2.17-13.47,3.49-10.8,3.2-22,6.17-27.88,17-1.37,2.51-1.25,7.37.32,9.73,11.94,18,30.11,26.29,50.66,28.92a99.67,99.67,0,0,0,53.42-7.32c4.56-2,9.51-4.5,12.61-8.19,9.17-10.88,6.8-22.08-5.69-29.64C2169.76-229.8,2163.39-232.87,2155-237.36Z" transform="translate(497.65 382.79)"/><path class="cls-9" d="M-189.11,989.48c-17.91,7.49-35.69,15.3-53.74,22.4a1533.34,1533.34,0,0,1-204.29,64.33l.05-4c33.49-9.7,67.39-18.19,100.38-29.37,49.8-16.87,99-35.63,148.41-53.56,2.23-.81,4.57-1.32,6.86-2Z" transform="translate(497.65 382.79)"/><path class="cls-6" d="M-292.28,436.82v3.3q-81.39-.5-162.8-1c-10.65-.09-21.31-.58-31.94-1.21-2.71-.16-5.34-1.58-8-2.43.2-1.12.41-2.24.62-3.36Z" transform="translate(497.65 382.79)"/><path class="cls-7" d="M178.62,517.33l-4.8-2.62c22.61-16.07,45.28-32.06,67.82-48.23q54.06-38.81,108-77.81c0,1.47.07,2.95.11,4.42-15.06,11.48-29.95,23.18-45.22,34.38q-56.22,41.23-112.76,82C187.65,512.5,183,514.75,178.62,517.33Z" transform="translate(497.65 382.79)"/><path class="cls-7" d="M199.19,789.71l-.17-4.6c18.31-7.44,36.32-15.8,55-22.1,30.12-10.15,60.61-19.22,91.13-28.11,7.47-2.17,15.65-1.9,23.49-2.74-.11,1.18-.23,2.36-.34,3.54-54.09,11.71-107.47,25.61-157.6,49.84C207.06,787.31,203,788.34,199.19,789.71Z" transform="translate(497.65 382.79)"/><path class="cls-6" d="M2289.59-225.88c23.1-19.1,39-18.16,66.77,4.19l-36.51,26.05Zm57.1,3.22c-22.93-14.78-31.87-14.93-46.28.1,6.73,5.16,13.23,10.49,20.17,15.19,1.68,1.14,5.51,1.19,7.11,0C2334.29-212.08,2340.4-217.49,2346.69-222.66Z" transform="translate(497.65 382.79)"/><path class="cls-13" d="M67,385v-3.73c28.18-4.71,56.45-8.87,82.89,6.55,17.07,10,23.61,33.29,14.67,50-1,1.92-3.15,3.26-4.77,4.86l.12.11c1.35-4.79,3.39-9.5,3.94-14.37,2.3-20.49-13.53-40.53-34.48-43.34-13.73-1.84-27.88-.71-41.84-.71C80.64,384.27,73.8,384.72,67,385Z" transform="translate(497.65 382.79)"/><path class="cls-8" d="M1788.73,1167.13c0,1.21,0,2.42,0,3.62l-128,6.18c0-1.17,0-2.34,0-3.51Z" transform="translate(497.65 382.79)"/><path class="cls-8" d="M1204.41,1501c-.14-1.15-.28-2.3-.43-3.45,21-2,42-4.07,63-5.92,12.87-1.13,25.77-1.92,38.65-2.86l-.06,4c-15.24,1.74-30.46,3.91-45.75,5.12C1241.36,1499.39,1222.87,1500,1204.41,1501Z" transform="translate(497.65 382.79)"/><path class="cls-14" d="M523.26-374.26l-.09,3.69c-24.19,4.09-48.37,8.26-72.58,12.25-11.8,1.95-23.65,3.62-35.48,5.33-2.53.37-5.11.39-7.67.57l-.59-3.92Z" transform="translate(497.65 382.79)"/><path class="cls-8" d="M880.33,127c0,1.24,0,2.48-.05,3.71-20.69,1.5-41.37,3.16-62.08,4.41-8.87.53-17.79.2-26.68.26.24-1,.48-2,.71-3Z" transform="translate(497.65 382.79)"/><path class="cls-14" d="M2067.15,1417.33c-14.55,1.47-29.08,3.21-43.65,4.32-17.71,1.33-35.46,2.12-53.19,3.15,0-.94-.07-1.87-.11-2.81q48.48-2.91,96.94-5.85A4.31,4.31,0,0,1,2067.15,1417.33Z" transform="translate(497.65 382.79)"/><path class="cls-15" d="M485.89,617.88l3.06,2.94c-13,3.57-26,7.2-39,10.68-14.12,3.79-28.27,7.44-42.4,11.15-.07-.86-.13-1.71-.2-2.57,19.21-5.85,38.37-11.83,57.63-17.48C471.82,620.6,478.91,619.43,485.89,617.88Z" transform="translate(497.65 382.79)"/><path class="cls-16" d="M2067.15,1417.33a4.31,4.31,0,0,0,0-1.19c20.34-1.09,40.67-2.38,61-3.24,11.38-.48,22.8-.23,34.21-.32,0,.82,0,1.64,0,2.47-1.58.5-3.14,1.42-4.73,1.46q-43.29,1.07-86.59,1.91C2069.73,1418.45,2068.43,1417.71,2067.15,1417.33Z" transform="translate(497.65 382.79)"/><path class="cls-17" d="M2168.38,575.15q44.79,5.15,89.59,10.34c2,.23,3.85,1.35,5.77,2,0,1.17,0,2.33-.07,3.5q-46.36-5.35-92.73-10.76c-.85-.1-1.58-1.18-2.36-1.8C2168.51,577.37,2168.44,576.26,2168.38,575.15Z" transform="translate(497.65 382.79)"/><path class="cls-15" d="M-422.29,981.59l.27,3.28-71.46,20.32-1.44-5.15Z" transform="translate(497.65 382.79)"/><path class="cls-18" d="M2172.67,870c2.19-.68,4.38-2,6.57-2q44.82-.19,89.63,0c1.61,0,3.21.87,4.81,1.34-2.23.63-4.45,1.8-6.68,1.81q-44.72.18-89.42,0C2175.94,871.12,2174.31,870.36,2172.67,870Z" transform="translate(497.65 382.79)"/><path class="cls-18" d="M2017.76,182.34c0-1.07,0-2.15,0-3.23,10.16-1.16,20.3-2.59,30.49-3.44,14.68-1.23,29.4-2,44.11-3l1.94,3.23Z" transform="translate(497.65 382.79)"/><path class="cls-16" d="M1070.27,593.45c0,1.27.07,2.54.11,3.81l-74.45-10c-.16-1-.32-2-.47-3Z" transform="translate(497.65 382.79)"/><path class="cls-15" d="M1297.77,672.08c-.14,1.26-.27,2.52-.41,3.78l-66.31-19.74c.08-1,.17-2,.26-3Z" transform="translate(497.65 382.79)"/><path class="cls-13" d="M2168.53,1016.61l-4,3.65-64.13,6.24c-.07-1.07-.15-2.14-.22-3.2Z" transform="translate(497.65 382.79)"/><path class="cls-8" d="M1445.55-91.56l2.35-1.8,58,13.83,0,4.22Z" transform="translate(497.65 382.79)"/><path class="cls-15" d="M-447.09,1072.23c0,1.32,0,2.65-.05,4l-46.19,14c-.48-1.58-1-3.17-1.45-4.76C-479.31,1079.73-463.23,1075.87-447.09,1072.23Z" transform="translate(497.65 382.79)"/><path class="cls-13" d="M97.87-277.4v3.78l-45.47,4.1L50.57-273Z" transform="translate(497.65 382.79)"/><path class="cls-8" d="M1970.2,1422c0,.94.08,1.87.11,2.81l-80.47,6.21c0-1.18,0-2.36,0-3.54Z" transform="translate(497.65 382.79)"/><path class="cls-17" d="M792.23,132.36c-.23,1-.47,2-.71,3-11.77,1.33-23.54,2.76-35.32,3.95a63.8,63.8,0,0,1-17.87-.3C755.88,133.4,774.09,133.08,792.23,132.36Z" transform="translate(497.65 382.79)"/><path class="cls-15" d="M-98.51,1217.15c.08-.82.15-1.64.22-2.46l59.48,3.65-.3,3.85Z" transform="translate(497.65 382.79)"/><path class="cls-8" d="M-189.11,989.48l-2.33-2.15,41.64-18.28-.06,3.93Z" transform="translate(497.65 382.79)"/><path class="cls-18" d="M1660.74,1173.42c0,1.17,0,2.34,0,3.51l-53.86,4.22-.06-3.19Z" transform="translate(497.65 382.79)"/><path class="cls-14" d="M2168.38,575.15c.06,1.11.13,2.22.2,3.33l-47.32-8.33c-.09-1.13-.18-2.27-.28-3.41Z" transform="translate(497.65 382.79)"/><path class="cls-18" d="M1993.07,854.12l-.06-2.58,39.13,4.43c0,1.12.11,2.24.16,3.37Z" transform="translate(497.65 382.79)"/><path class="cls-6" d="M1305.53,1492.81l.06-4,39.23-3.76c0,1.35,0,2.7,0,4Z" transform="translate(497.65 382.79)"/><path class="cls-16" d="M368.32,735.7c.11-1.18.23-2.36.34-3.54l45.12-4.64-.07-.07Z" transform="translate(497.65 382.79)"/><path class="cls-2" d="M2094.26,175.86l-1.94-3.23c10.55-1.28,21.09-2.79,31.68-3.65,2-.16,4.29,2.22,6.43,3.42Z" transform="translate(497.65 382.79)"/><path class="cls-14" d="M698.56,145.27l0-3.49,33.73-3.71.33,3.42Z" transform="translate(497.65 382.79)"/><path class="cls-13" d="M1613.2,791.58c0-1.48.06-3,.1-4.42l21.25,10.12-4.83,2.45Z" transform="translate(497.65 382.79)"/><path class="cls-8" d="M954.86,130.51l32.86.67Z" transform="translate(497.65 382.79)"/><path class="cls-8" d="M1068.35,132.71l28.81.57Z" transform="translate(497.65 382.79)"/><path class="cls-16" d="M481.9,719.41l.42,3-26,1.41-.24-4.42Z" transform="translate(497.65 382.79)"/><path class="cls-18" d="M2134.5,868.6l25.8,1.26Z" transform="translate(497.65 382.79)"/><path class="cls-18" d="M2263.67,591c0-1.17,0-2.33.07-3.5l24.75,2.38c0,1,0,2-.07,3Z" transform="translate(497.65 382.79)"/><path class="cls-15" d="M925.8,1369.59l16.15-2.68c.22,1.38.43,2.76.64,4.14l-16.91,2Z" transform="translate(497.65 382.79)"/><path class="cls-18" d="M1980.65,180.77,1957.07,182Z" transform="translate(497.65 382.79)"/><path class="cls-11" d="M349.74,393.09c0-1.47-.07-2.95-.11-4.42l16.45-11.25,2.52,4Z" transform="translate(497.65 382.79)"/><path class="cls-2" d="M2046.77,1026.73l24.75-1.77c.09,1.09.19,2.18.29,3.28l-23.09,2.19Z" transform="translate(497.65 382.79)"/><path class="cls-8" d="M407.34,640.08c.07.86.13,1.71.2,2.57l-18.77,5.77-2.42-1.8Z" transform="translate(497.65 382.79)"/><path class="cls-9" d="M50.57-273l1.83,3.44-20.53,2c0-1.26,0-2.51,0-3.77Z" transform="translate(497.65 382.79)"/><path class="cls-2" d="M2100.17,1023.3c.07,1.06.15,2.13.22,3.2l-26.12,2c-.12-1.11-.23-2.22-.35-3.33Z" transform="translate(497.65 382.79)"/><path class="cls-4" d="M925.8,1369.59l-.12,3.46-16.31,1.62c0-1.09-.1-2.19-.14-3.29Z" transform="translate(497.65 382.79)"/><path class="cls-13" d="M1943.49,1035.11l16.41-.56Z" transform="translate(497.65 382.79)"/><path class="cls-18" d="M2356.46,867.69l14.23-.51Z" transform="translate(497.65 382.79)"/><path class="cls-6" d="M1365.5,1487.1l-14.53,1.46,0-4,14.47-1.48Z" transform="translate(497.65 382.79)"/><path class="cls-13" d="M2046.77,1026.73l1.95,3.7-8.15.3,0-3.9Z" transform="translate(497.65 382.79)"/><path class="cls-13" d="M2001.38,1032.76l10.11-.34Z" transform="translate(497.65 382.79)"/><path class="cls-15" d="M880.29,1373.53l-8,.51Z" transform="translate(497.65 382.79)"/><path class="cls-10" d="M369.32,651.78,380,648c.32.93.63,1.87.95,2.8L371.1,654Z" transform="translate(497.65 382.79)"/><path class="cls-8" d="M1365.5,1487.1l0-4.06,6.18-.54,0,4Z" transform="translate(497.65 382.79)"/><path class="cls-13" d="M1722.8,1034.45l8,.38Z" transform="translate(497.65 382.79)"/><path class="cls-8" d="M1351,1484.52l0,4-6.13.54c0-1.35,0-2.7,0-4Z" transform="translate(497.65 382.79)"/><path class="cls-11" d="M995.46,584.31c.15,1,.31,2,.47,3l-8.08-.67c0-.78,0-1.55-.05-2.32Z" transform="translate(497.65 382.79)"/><path class="cls-13" d="M1687.74,1032.28l8.06.62Z" transform="translate(497.65 382.79)"/><path class="cls-18" d="M2099.38,866.62l7.24,1.14Z" transform="translate(497.65 382.79)"/><path class="cls-13" d="M166-279.56l6.05-.54Z" transform="translate(497.65 382.79)"/><path class="cls-16" d="M508.7,717.34l-6.11.27Z" transform="translate(497.65 382.79)"/><path class="cls-18" d="M2401.91,865.51c2.34-.39,4.69-.79,7-1.17Z" transform="translate(497.65 382.79)"/><path class="cls-18" d="M1877.46,182.7l-6.08.36Z" transform="translate(497.65 382.79)"/><path class="cls-13" d="M159.75,442.59l-2.81,5.13-1.53-1.11,4.46-3.91Z" transform="translate(497.65 382.79)"/><path class="cls-15" d="M909.23,1371.38c0,1.1.09,2.2.14,3.29l-4.33.49.09-3.36Z" transform="translate(497.65 382.79)"/><path class="cls-8" d="M2389.39,96.22l-3.88.27Z" transform="translate(497.65 382.79)"/><path class="cls-13" d="M31.83-271.33c0,1.26,0,2.51,0,3.77l-4.19.17c0-1.23,0-2.45,0-3.67Z" transform="translate(497.65 382.79)"/><path class="cls-13" d="M2330.55,657.87l5.17,1.33Z" transform="translate(497.65 382.79)"/><path class="cls-15" d="M989.73,1365.2l4-.38Z" transform="translate(497.65 382.79)"/><path class="cls-18" d="M2424.61,863.46l5-1.11Z" transform="translate(497.65 382.79)"/><path class="cls-18" d="M2061.32,863.21l4,.38Z" transform="translate(497.65 382.79)"/><path class="cls-13" d="M141.24-277.52l4.06-.26Z" transform="translate(497.65 382.79)"/><path class="cls-13" d="M2397.81,667.33l4.05.33Z" transform="translate(497.65 382.79)"/><path class="cls-13" d="M2463.67,670.06l-4-.34Z" transform="translate(497.65 382.79)"/><path class="cls-7" d="M376.56,375.62l4.76-2.85Z" transform="translate(497.65 382.79)"/><path class="cls-10" d="M386.35,646.62l2.42,1.8-5.41,1.07-.44-1.26Z" transform="translate(497.65 382.79)"/><path class="cls-16" d="M413.78,727.52l.38-.63-.45.56Z" transform="translate(497.65 382.79)"/><path class="cls-17" d="M2341.26,424.91h-25.32C2320,419.05,2332.47,418.24,2341.26,424.91Z" transform="translate(497.65 382.79)"/><path class="cls-18" d="M2460.61,596.77l-17.46-1.31Z" transform="translate(497.65 382.79)"/><path class="cls-18" d="M2385.17,593.92l-16.29-.36Z" transform="translate(497.65 382.79)"/><path class="cls-18" d="M2323.25,591.84l-8.06-.38Z" transform="translate(497.65 382.79)"/><path class="cls-18" d="M2181,168.19c2.39-.42,4.79-.85,7.19-1.26Z" transform="translate(497.65 382.79)"/><path class="cls-18" d="M2156.18,170.28l6-.55Z" transform="translate(497.65 382.79)"/><path class="cls-18" d="M2203.7,166l4-.27Z" transform="translate(497.65 382.79)"/><path class="cls-18" d="M2135.57,172.19l5.17-.92Z" transform="translate(497.65 382.79)"/><path class="cls-8" d="M1388.23,1484.73l3.93-.3Z" transform="translate(497.65 382.79)"/><path class="cls-10" d="M509.51,1247.63c-16.91-1.33-16.91-1.33-31.52,9.77l26.59,12.94c0,1.21,0,2.42,0,3.63H463.83c3.38-5.77,7-11.24,9.93-17.07C482,1240.55,493.64,1237.43,509.51,1247.63Z" transform="translate(497.65 382.79)"/><path class="cls-6" d="M504.57,1274c0-1.21,0-2.42,0-3.63l24.17-8.31-14-13,20.72,7.43C531.1,1272.66,527.43,1274.63,504.57,1274Z" transform="translate(497.65 382.79)"/></svg>