<svg id="Logo1_Image" data-name="Logo1 Image" xmlns="http://www.w3.org/2000/svg" viewBox="0 0 117.66 108.07"><defs><style>.cls-1{fill:#308ac1;}.cls-2{fill:#156f9e;}.cls-3{fill:#16709e;}.cls-4{fill:#2175ac;}.cls-5{fill:#2981b7;}.cls-6{fill:#267cb2;}.cls-7{fill:#2f88be;}.cls-8{fill:#1c5377;}.cls-9{fill:#1f6695;}</style></defs><path class="cls-1" d="M56.32,69.71c4-5.32,7.86-10.68,11.87-16,3.07-4.05,6.24-8.08,10.43-11a26.54,26.54,0,0,1,9.92-4.77c2.87-.56,3.82.14,3.42,3a27,27,0,0,1-1.52,5.65C87.78,53.86,85,61.07,82.33,68.35A51.7,51.7,0,0,0,79,82.65,27.93,27.93,0,0,0,79.24,89c.62,3.58,4.15,6.37,8.18,6.81l3,.3c-1.78,5.53-4.62,10-10.6,11.55a14.39,14.39,0,0,1-7.81-.16,8.49,8.49,0,0,1-6.32-6.69c-1.15-5.31-.38-10.53,1.1-15.63,1.18-4,2.68-8,4-12,.13-.37.28-.73.48-1.26-1.77-.12-3.42-.28-5.07-.3-.32,0-.74.5-1,.86A99.93,99.93,0,0,1,54.32,87.2c-4.59,5-9.77,9.09-16.36,11.09a26.71,26.71,0,0,1-14.08.5c-11.37-2.66-14.68-13.28-11.25-22C15.48,69.58,21,65.7,28.72,65.05a27,27,0,0,1,10.46,1.13c-.25,2-.58,4-.72,5.94a17.3,17.3,0,0,0,.17,3.94C39.17,79.4,41.7,81,45,80a11.7,11.7,0,0,0,3.75-2c1.61-1.35,3-3,4.48-4.47ZM26.57,88.12a6.88,6.88,0,0,0,7-6.74v-.15a6.93,6.93,0,1,0-13.85-.53,4.69,4.69,0,0,0,0,.53,6.88,6.88,0,0,0,6.85,6.89Zm42-21.77.33.44c1.15,0,2.3-.07,3.44,0a1.46,1.46,0,0,0,1.61-1c2.74-5.46,5.53-10.89,8.3-16.33.15-.29.28-.6.58-1.25a9,9,0,0,0-2,.85,11.63,11.63,0,0,0-2.59,2.46C75,56.43,71.79,61.41,68.57,66.35Z" transform="translate(0 -0.04)"/><path class="cls-2" d="M27.1,23.83c-.85,2.65-1.64,5.32-2.55,7.94-1.41,4.07-2.8,8.16-4.43,12.14a14.56,14.56,0,0,1-2.93,4.31c-1.63,1.75-3.45,1.24-3.72-1.13a58.73,58.73,0,0,1-.41-10.27c.34-5.26,1.14-10.48,1.72-15.73a23,23,0,0,0,.11-2.63c0-.27-.14-.72-.32-.78a1.68,1.68,0,0,0-1,.15,3.21,3.21,0,0,0-.64,1.56c-.24,3.1-1.44,5.55-4.41,6.86a4.67,4.67,0,0,1-6-1.54c-3.34-4-3.82-14,1.6-18.32A10.55,10.55,0,0,1,15.17,5c2.24.89,3.48,2.86,4.23,5.11a23.72,23.72,0,0,1,.87,9.73c-.34,3.86-1,7.69-1.47,11.53a8.19,8.19,0,0,1-.33,1.2l.3.16a10.7,10.7,0,0,0,.66-1.31q1.8-5.77,3.56-11.56c.76-2.48,1.53-5,2.25-7.46a1.17,1.17,0,0,1,1.31-1h5.57c.9,0,1.15.31,1.24,1.14a51.18,51.18,0,0,1-.89,14.08c-.26,1.53-.58,3-.91,4.76a2.38,2.38,0,0,0,.51-.44A46.82,46.82,0,0,0,38.88,12a23.06,23.06,0,0,0,0-3.11c0-.73,0-1.65-.92-1.71a2.92,2.92,0,0,0-2.1.68c-.63.73-1.06,1.33-2.11.88a3.08,3.08,0,0,1-2.14-2.51C31.15,2.31,34.3-.49,38.47.12A6.23,6.23,0,0,1,43.87,5a25.31,25.31,0,0,1-.47,11.64,81,81,0,0,1-7.83,20,20.87,20.87,0,0,1-5.21,6.66c-1,.76-2,1.48-3.26,1s-1.4-1.77-1.42-2.86a74.2,74.2,0,0,1,.26-7.89c.27-2.74.84-5.45,1.27-8.17.08-.5.14-1,.21-1.5ZM6.57,22.64a2.71,2.71,0,0,0,2.72-2.7v0a2.73,2.73,0,0,0-5.46,0h0a2.73,2.73,0,0,0,2.73,2.73Z" transform="translate(0 -0.04)"/><path class="cls-3" d="M50.76,33.11c-.8.83-1.41,1.58-2.13,2.2a3.68,3.68,0,0,1-5.2,0,3.6,3.6,0,0,1-.8-1.21c-2.3-4.67-.72-11.85,3.32-15.14a6.59,6.59,0,0,1,7.41-.5c1.49-1.7,3.36-.47,5.11-.84-.55,2-1.15,3.85-1.49,5.72A31.15,31.15,0,0,0,56.66,28c0,.65.14,1.48,1,1.31.6-.11,1.5-.65,1.59-1.12.44-2.45.67-5,1-7.49l-1.32-.19.6-2.8a6.25,6.25,0,0,1,1.06,0c.75.11,1-.28,1.26-.94.5-1.51,1.08-3,1.6-4.51a1.16,1.16,0,0,1,1.32-.91c1.14.07,2.29,0,3.51,0-.6,2.16-1.17,4.18-1.76,6.31l1.49.21-.48,2.76c-1.8.28-1.9.28-2,2.15a41.91,41.91,0,0,0,0,5.49,1.6,1.6,0,0,0,1,1.29,2,2,0,0,0,1.54-.8,4.2,4.2,0,0,0,.57-2.13,10,10,0,0,1,3-6.85A6,6,0,0,1,77.8,18c2.21.55,3.68,3.13,3.47,5.92a5.2,5.2,0,0,1-4.56,4.27c-.49.07-1,.12-1.48.18l-.13.33A8.88,8.88,0,0,0,76.7,30a6.15,6.15,0,0,0,5.76-.12,2.26,2.26,0,0,0,1.08-1.31c.64-2.55,1.21-5.13,1.7-7.71a1.8,1.8,0,0,0-.62-1.25,5.11,5.11,0,0,1-1-6.39l4.72,1c.06.13.13.21.11.27-.61,2.29-.07,3.18,2.32,3.67a28.7,28.7,0,0,0,3.21.39,3.18,3.18,0,0,1,3.22,2.84c.31,2.6.33,5.25.53,7.87a22,22,0,0,0,.48,2.81c.18.83.76,1.5,1.59,1.27.47-.13.77-.92,1.13-1.43a1.52,1.52,0,0,0,.15-.5,1.66,1.66,0,0,1,1.86,1.14,10.7,10.7,0,0,1,.62,5.87c-.8,4.16-3.38,4.7-6.72,3.14-2.5-1.18-3.68-3.46-4.43-6a20.51,20.51,0,0,1-.56-7.36q.16-2.68.39-5.37c.06-.76-.21-1.1-1-1.14s-1.58-.19-2.55-.32c-.36,1.55-.69,3.13-1.1,4.69a66.31,66.31,0,0,1-2.18,7.83A6.68,6.68,0,0,1,79.6,38,9.55,9.55,0,0,1,70,33.53c-.13-.19-.3-.35-.46-.54-3.1,4.58-7.72,4.69-9.58.5-1.42,1.3-2.79,2.65-4.86,2.72A4.32,4.32,0,0,1,50.76,33.11ZM47,27.87l.69,1.34c.55-.31,1.27-.48,1.63-.94a13.33,13.33,0,0,0,2.44-6.41c.06-.41-.14-1.19-.35-1.24a3.06,3.06,0,0,0-1.55.24,1.57,1.57,0,0,0-.61.56A11.46,11.46,0,0,0,47,27.87ZM74.36,26a4.62,4.62,0,0,0,3.78-2.38c.46-.81.31-2.19-.33-2.49-.89-.44-1.56.1-2,.74A5.77,5.77,0,0,0,74.36,26Z" transform="translate(0 -0.04)"/><path class="cls-1" d="M101.41,52.86c-.72,1.89-1.43,3.66-2.08,5.45a112.05,112.05,0,0,0-5.69,19.4,15.27,15.27,0,0,0-.11,3.7,1.77,1.77,0,0,0,1.64,1.89,1.7,1.7,0,0,0,1-.2A4.14,4.14,0,0,0,99,80c2-9.12,5.54-17.65,9.46-26.06a1.66,1.66,0,0,1,1.82-1.11c2.31.07,4.63,0,7.13,0-.2.56-.34,1-.52,1.49a132.44,132.44,0,0,0-7,22,22.55,22.55,0,0,0-.39,4.64c0,2.09,1.57,2.91,3.35,1.79a17.64,17.64,0,0,0,1.73-1.62c.35-.29.89-.69,1.22-.6.62.18,1.45.56,1.64,1.06a4.22,4.22,0,0,1,0,2.44c-1,3.86-7.16,9.76-13.12,9.38-2.81-.19-4.37-1.21-5.31-3.84l-.33-1c-.8.68-1.51,1.35-2.28,1.94a12.21,12.21,0,0,1-8.53,2.88A5,5,0,0,1,83.15,90a14.5,14.5,0,0,1-.57-7.1c.91-7.5,3.6-14.46,6.46-21.37,1.08-2.62,2.33-5.17,3.47-7.76a1.34,1.34,0,0,1,1.42-1C96.38,52.9,98.81,52.86,101.41,52.86Z" transform="translate(0 -0.04)"/><path class="cls-4" d="M50.29,71.62c-2.82-1.36-2.82-1.36-1.82-4.23L50.7,61a60,60,0,0,0-6.43,0c-2.32.26-3.68-.49-4.18-2.77a7.85,7.85,0,0,0-.32-.8c3.87-3.53,5.62-7.66,3.68-12.84.36.31.85.54,1.07.93,1.08,2,2.08,4,3.15,6,.18.34.57.56.86.84l-2.25,5.07c1.82-.13,3.54-.23,5.26-.4.27,0,.51-.4.77-.61.35.25.83.44,1,.78a39.36,39.36,0,0,1,1.93,3.84,2.35,2.35,0,0,0,2.49,1.61l-.23,1c-.78.81-1.57,1.62-2.33,2.45C53.57,67.92,51.93,69.77,50.29,71.62Z" transform="translate(0 -0.04)"/><path class="cls-5" d="M57.75,62.71a2.35,2.35,0,0,1-2.49-1.61,39.36,39.36,0,0,0-1.93-3.84c-.19-.34-.67-.53-1-.78q2.2-6.39,4.42-12.76a6.39,6.39,0,0,1,1,1.14c.79,1.49,1.5,3,2.3,4.53.18.34.57.56.86.84L59.5,56.34l4.14-.2c-.47,1.57-.88,3-1.36,4.51,0,.18-.4.34-.63.37a5.7,5.7,0,0,1-1.43,0C58.8,60.76,57.87,61.13,57.75,62.71Z" transform="translate(0 -0.04)"/><path class="cls-6" d="M48.57,52.38c-.29-.28-.68-.5-.86-.84-1.07-2-2.07-4-3.15-6-.22-.39-.71-.62-1.07-.93-.74-.93-1.51-1.83-2.21-2.79A1.58,1.58,0,0,1,41,40.71,3.58,3.58,0,0,1,43.29,38c3-1.09,7.29.15,7.37,4.72A23.91,23.91,0,0,1,48.57,52.38Z" transform="translate(0 -0.04)"/><path class="cls-7" d="M60.86,50.19c-.29-.28-.68-.5-.86-.84-.8-1.5-1.51-3-2.3-4.53a6.39,6.39,0,0,0-1-1.14l2-6,4.73,2.54Z" transform="translate(0 -0.04)"/><path class="cls-8" d="M56.32,69.71l-3.11,3.82-1.46-1c.88-1.16,1.72-2.34,2.65-3.46s1.67-1.86,2.51-2.79Z" transform="translate(0 -0.04)"/><path class="cls-9" d="M56.91,66.27c-.84.93-1.72,1.82-2.51,2.79-.93,1.12-1.77,2.3-2.65,3.46l-1.46-.9c1.64-1.85,3.26-3.7,4.9-5.54.76-.83,1.55-1.64,2.33-2.45-.14.59-.28,1.18-.43,1.77a5,5,0,0,1-.07.52Z" transform="translate(0 -0.04)"/><path class="cls-8" d="M57,65.92a4.34,4.34,0,0,1,.07-.52C57.07,65.57,57,65.71,57,65.92Z" transform="translate(0 -0.04)"/></svg>